<svg width="46" height="26" viewBox="0 0 46 26" fill="none" xmlns="http://www.w3.org/2000/svg">
<path d="M1.07104 15H4.58393C6.34037 15 7.48325 14.1699 7.48325 12.7022C7.48325 11.6315 6.89376 10.9578 6.03961 10.6089C6.85767 10.2961 7.38701 9.62241 7.38701 8.59982C7.38701 7.19227 6.36443 6.2178 4.54783 6.2178H1.07104V15ZM4.49971 7.52912C5.42605 7.52912 5.87118 8.1547 5.87118 8.80434C5.87118 9.46601 5.42605 10.0435 4.49971 10.0435H2.58688V7.52912H4.49971ZM4.60799 11.1984C5.38996 11.1984 5.97945 11.6676 5.97945 12.4496C5.97945 13.2195 5.43809 13.6887 4.60799 13.6887H2.58688V11.1984H4.60799Z" fill="black"/>
<path d="M8.33121 12.0165C8.33121 13.8451 9.55831 15.1444 11.423 15.1444C13.2877 15.1444 14.5148 13.8451 14.5148 12.0165C14.5148 10.1878 13.2877 8.88855 11.423 8.88855C9.55831 8.88855 8.33121 10.1878 8.33121 12.0165ZM9.81095 12.0165C9.81095 10.9458 10.4486 10.1999 11.423 10.1999C12.3975 10.1999 13.0351 10.9458 13.0351 12.0165C13.0351 13.0751 12.3975 13.8331 11.423 13.8331C10.4486 13.8331 9.81095 13.0751 9.81095 12.0165Z" fill="black"/>
<path d="M24.7101 15H26.4545L25.0349 13.3639C25.468 12.6661 25.6965 11.7879 25.6725 10.7894H24.2409C24.2409 11.3187 24.1807 11.7999 24.0364 12.2089L22.2679 10.1758C23.3145 9.42992 23.7957 8.72013 23.7957 7.91409C23.7957 6.79526 22.9175 6.06141 21.6182 6.06141C20.3671 6.06141 19.3686 6.74714 19.3686 7.9983C19.3806 8.5517 19.5851 9.03292 20.3911 9.97129C19.152 10.5969 18.2738 11.3428 18.2738 12.6661C18.2738 14.194 19.549 15.1564 21.4739 15.1564C22.5325 15.1564 23.4469 14.8677 24.1446 14.3383L24.7101 15ZM20.7761 8.08252C20.7761 7.67348 21.0528 7.30054 21.6182 7.30054C22.1596 7.30054 22.4122 7.64942 22.4122 8.07049C22.4122 8.47952 22.1476 8.94871 21.5581 9.35774C21.0287 8.76825 20.7761 8.44343 20.7761 8.08252ZM19.8137 12.5217C19.8137 11.7398 20.343 11.2946 21.1491 10.8495L23.2905 13.3518C22.8814 13.7007 22.328 13.8932 21.6423 13.8932C20.4994 13.8932 19.8137 13.4481 19.8137 12.5217Z" fill="black"/>
<path d="M34.0315 15.1444C36.0887 15.1444 37.7128 13.9413 38.0616 12.0646H36.4616C36.1368 13.003 35.1984 13.6285 34.0676 13.6285C32.4916 13.6285 31.4209 12.4977 31.4209 10.5969C31.4209 8.76825 32.4194 7.55318 34.0676 7.55318C35.1142 7.55318 35.9924 8.11861 36.2932 9.15322H37.9293C37.6286 7.27648 36.1007 6.04938 34.1036 6.04938C31.5412 6.04938 29.8088 7.878 29.8088 10.6089C29.8088 13.4481 31.5412 15.1444 34.0315 15.1444Z" fill="black"/>
<path d="M38.8772 12.0165C38.8772 13.8451 40.1043 15.1444 41.969 15.1444C43.8337 15.1444 45.0608 13.8451 45.0608 12.0165C45.0608 10.1878 43.8337 8.88855 41.969 8.88855C40.1043 8.88855 38.8772 10.1878 38.8772 12.0165ZM40.3569 12.0165C40.3569 10.9458 40.9945 10.1999 41.969 10.1999C42.9435 10.1999 43.5811 10.9458 43.5811 12.0165C43.5811 13.0751 42.9435 13.8331 41.969 13.8331C40.9945 13.8331 40.3569 13.0751 40.3569 12.0165Z" fill="black"/>
<path d="M13.1435 21.1472C13.1435 21.5621 13.375 21.9159 13.9952 22.0905L14.5062 22.2347C14.7071 22.2914 14.8031 22.3832 14.8031 22.5317C14.8031 22.7369 14.6241 22.8679 14.3009 22.8679C13.9821 22.8679 13.7855 22.7369 13.7899 22.5011H13.0999C13.113 23.1169 13.589 23.4968 14.2965 23.4968C15.0215 23.4968 15.5106 23.0994 15.5106 22.5098C15.5106 22.0731 15.2399 21.7106 14.659 21.5577L14.1568 21.4267C13.9602 21.3743 13.851 21.287 13.851 21.1123C13.851 20.9157 13.9952 20.776 14.2703 20.776C14.5193 20.776 14.6852 20.8895 14.6852 21.1428H15.3796C15.3665 20.5532 14.9429 20.1471 14.279 20.1471C13.5977 20.1471 13.1435 20.5707 13.1435 21.1472Z" fill="black"/>
<path d="M16.2547 20.8808H17.268V23.4401H17.9755V20.8808H18.9844V20.2082H16.2547V20.8808Z" fill="black"/>
<path d="M19.9019 22.2259C19.9019 23.0208 20.5177 23.4925 21.2514 23.4925C21.9851 23.4925 22.6097 23.0339 22.6097 22.2259V20.2082H21.9021V22.2041C21.9021 22.5579 21.6226 22.8199 21.2514 22.8199C20.8758 22.8199 20.6094 22.5884 20.6094 22.2041V20.2082H19.9019V22.2259Z" fill="black"/>
<path d="M25.0454 23.4401C25.9669 23.4401 26.609 22.7762 26.609 21.8329C26.609 20.8764 25.9538 20.2082 25.0454 20.2082H23.7789V23.4401H25.0454ZM24.9756 20.8677C25.5171 20.8677 25.8621 21.2651 25.8621 21.8329C25.8621 22.3963 25.5258 22.7893 24.9756 22.7893H24.4864V20.8677H24.9756Z" fill="black"/>
<path d="M28.3329 20.2082H27.6254V23.4401H28.3329V20.2082Z" fill="black"/>
<path d="M32.4718 21.8198C32.4718 20.8502 31.8429 20.1514 30.8864 20.1514C29.9343 20.1514 29.3054 20.8546 29.3054 21.8241C29.3054 22.7937 29.9299 23.4925 30.882 23.4925C31.8385 23.4925 32.4718 22.7893 32.4718 21.8198ZM31.7249 21.8198C31.7249 22.4356 31.4061 22.8024 30.8908 22.8024C30.3623 22.8024 30.0522 22.4356 30.0522 21.8198C30.0522 21.204 30.3667 20.8371 30.8908 20.8371C31.4105 20.8371 31.7249 21.204 31.7249 21.8198Z" fill="black"/>
</svg>
