<svg width="216" height="90" viewBox="0 0 216 90" fill="none" xmlns="http://www.w3.org/2000/svg">
<path d="M0 44.3191H17.1736C25.7604 44.3191 31.3477 40.261 31.3477 33.0857C31.3477 27.8513 28.4659 24.5577 24.2901 22.8521C28.2894 21.323 30.8772 18.0294 30.8772 13.0302C30.8772 6.14901 25.878 1.3851 16.9972 1.3851H0V44.3191ZM16.7619 7.7958C21.2906 7.7958 23.4667 10.8541 23.4667 14.0301C23.4667 17.2648 21.2906 20.0879 16.7619 20.0879H7.41053V7.7958H16.7619ZM17.2912 25.734C21.1141 25.734 23.996 28.0277 23.996 31.8506C23.996 35.6147 21.3494 37.9084 17.2912 37.9084H7.41053V25.734H17.2912Z" fill="#232323"/>
<path d="M35.4932 29.7333C35.4932 38.673 41.4922 45.0249 50.6083 45.0249C59.7244 45.0249 65.7234 38.673 65.7234 29.7333C65.7234 20.7936 59.7244 14.4417 50.6083 14.4417C41.4922 14.4417 35.4932 20.7936 35.4932 29.7333ZM42.7273 29.7333C42.7273 24.4989 45.8444 20.8524 50.6083 20.8524C55.3722 20.8524 58.4893 24.4989 58.4893 29.7333C58.4893 34.9089 55.3722 38.6142 50.6083 38.6142C45.8444 38.6142 42.7273 34.9089 42.7273 29.7333Z" fill="#232323"/>
<path d="M115.565 44.3191H124.093L117.153 36.3205C119.271 32.9093 120.388 28.6159 120.27 23.7343H113.272C113.272 26.3221 112.978 28.6747 112.272 30.6743L103.626 20.7348C108.743 17.0884 111.095 13.6184 111.095 9.67784C111.095 4.20816 106.802 0.62052 100.45 0.62052C94.3336 0.62052 89.452 3.9729 89.452 10.0895C89.5108 12.795 90.5107 15.1475 94.4512 19.735C88.3934 22.7933 84.1 26.4398 84.1 32.9093C84.1 40.3786 90.3342 45.0837 99.7444 45.0837C104.92 45.0837 109.39 43.6722 112.801 41.0844L115.565 44.3191ZM96.3332 10.5012C96.3332 8.50156 97.686 6.67834 100.45 6.67834C103.097 6.67834 104.332 8.38394 104.332 10.4424C104.332 12.4421 103.038 14.7358 100.156 16.7355C97.5683 13.8536 96.3332 12.2656 96.3332 10.5012ZM91.6281 32.2035C91.6281 28.3806 94.2159 26.2045 98.1565 24.0284L108.625 36.2617C106.626 37.9672 103.92 38.9083 100.568 38.9083C94.9805 38.9083 91.6281 36.7322 91.6281 32.2035Z" fill="#232323"/>
<path d="M161.135 45.0249C171.193 45.0249 179.132 39.1435 180.838 29.9686H173.016C171.428 34.5561 166.84 37.6144 161.312 37.6144C153.607 37.6144 148.373 32.0859 148.373 22.7933C148.373 13.8536 153.254 7.91343 161.312 7.91343C166.429 7.91343 170.722 10.6777 172.192 15.7357H180.191C178.721 6.56071 171.251 0.561707 161.488 0.561707C148.961 0.561707 140.492 9.5014 140.492 22.8521C140.492 36.7322 148.961 45.0249 161.135 45.0249Z" fill="#232323"/>
<path d="M184.825 29.7333C184.825 38.673 190.824 45.0249 199.94 45.0249C209.056 45.0249 215.055 38.673 215.055 29.7333C215.055 20.7936 209.056 14.4417 199.94 14.4417C190.824 14.4417 184.825 20.7936 184.825 29.7333ZM192.059 29.7333C192.059 24.4989 195.176 20.8524 199.94 20.8524C204.704 20.8524 207.821 24.4989 207.821 29.7333C207.821 34.9089 204.704 38.6142 199.94 38.6142C195.176 38.6142 192.059 34.9089 192.059 29.7333Z" fill="#232323"/>
<path d="M59.0198 78.1099C59.0198 80.1382 60.1515 81.8676 63.1833 82.7217L65.6814 83.4263C66.6635 83.7038 67.1333 84.1522 67.1333 84.8781C67.1333 85.8816 66.2579 86.5222 64.6779 86.5222C63.1193 86.5222 62.1585 85.8816 62.1798 84.7287H58.8063C58.8704 87.7392 61.1977 89.5967 64.6565 89.5967C68.2008 89.5967 70.5921 87.6538 70.5921 84.7714C70.5921 82.6363 69.2684 80.8641 66.4287 80.1169L63.9733 79.4763C63.0125 79.2201 62.4787 78.7931 62.4787 77.939C62.4787 76.9782 63.1833 76.295 64.5284 76.295C65.7454 76.295 66.5568 76.8501 66.5568 78.0885H69.9516C69.8875 75.2061 67.8165 73.2205 64.5711 73.2205C61.2404 73.2205 59.0198 75.2915 59.0198 78.1099Z" fill="#232323"/>
<path d="M74.2298 76.8074H79.1833V89.3192H82.6421V76.8074H87.5742V73.5194H74.2298V76.8074Z" fill="#232323"/>
<path d="M92.0598 83.3836C92.0598 87.2695 95.0703 89.5754 98.6573 89.5754C102.244 89.5754 105.297 87.3335 105.297 83.3836V73.5194H101.839V83.2768C101.839 85.0062 100.472 86.2873 98.6573 86.2873C96.8211 86.2873 95.5187 85.1557 95.5187 83.2768V73.5194H92.0598V83.3836Z" fill="#232323"/>
<path d="M117.205 89.3192C121.71 89.3192 124.849 86.0738 124.849 81.462C124.849 76.7861 121.646 73.5194 117.205 73.5194H111.014V89.3192H117.205ZM116.864 76.7434C119.511 76.7434 121.198 78.6863 121.198 81.462C121.198 84.2163 119.554 86.1379 116.864 86.1379H114.472V76.7434H116.864Z" fill="#232323"/>
<path d="M133.277 73.5194H129.818V89.3192H133.277V73.5194Z" fill="#232323"/>
<path d="M153.511 81.3979C153.511 76.658 150.436 73.2418 145.76 73.2418C141.106 73.2418 138.031 76.6793 138.031 81.4193C138.031 86.1592 141.084 89.5754 145.739 89.5754C150.415 89.5754 153.511 86.1379 153.511 81.3979ZM149.86 81.3979C149.86 84.4084 148.301 86.2019 145.782 86.2019C143.198 86.2019 141.682 84.4084 141.682 81.3979C141.682 78.3874 143.22 76.5939 145.782 76.5939C148.323 76.5939 149.86 78.3874 149.86 81.3979Z" fill="#232323"/>
</svg>
